<svg width="402" height="52" viewBox="0 0 402 52" fill="none" xmlns="http://www.w3.org/2000/svg">
<rect width="190" height="52" rx="7" fill="black"/>
<path d="M67.1364 20H63.9325V10.5455H67.201C68.1397 10.5455 68.946 10.7347 69.62 11.1133C70.2971 11.4888 70.8172 12.0289 71.1804 12.7337C71.5436 13.4384 71.7251 14.2817 71.7251 15.2635C71.7251 16.2483 71.542 17.0947 71.1758 17.8026C70.8126 18.5104 70.2879 19.0536 69.6016 19.4322C68.9183 19.8107 68.0966 20 67.1364 20ZM65.6452 18.5181H67.0533C67.7119 18.5181 68.2612 18.3981 68.7013 18.158C69.1415 17.9149 69.4723 17.5533 69.6939 17.0732C69.9155 16.59 70.0263 15.9867 70.0263 15.2635C70.0263 14.5402 69.9155 13.9401 69.6939 13.4631C69.4723 12.983 69.1445 12.6244 68.7106 12.3874C68.2797 12.1474 67.7442 12.0273 67.104 12.0273H65.6452V18.5181ZM76.3716 20.1385C75.6792 20.1385 75.079 19.9862 74.5712 19.6815C74.0634 19.3768 73.6694 18.9505 73.3894 18.4027C73.1124 17.8549 72.9739 17.2147 72.9739 16.4822C72.9739 15.7498 73.1124 15.1081 73.3894 14.5572C73.6694 14.0063 74.0634 13.5785 74.5712 13.2738C75.079 12.9691 75.6792 12.8168 76.3716 12.8168C77.0641 12.8168 77.6642 12.9691 78.1721 13.2738C78.6799 13.5785 79.0723 14.0063 79.3493 14.5572C79.6293 15.1081 79.7694 15.7498 79.7694 16.4822C79.7694 17.2147 79.6293 17.8549 79.3493 18.4027C79.0723 18.9505 78.6799 19.3768 78.1721 19.6815C77.6642 19.9862 77.0641 20.1385 76.3716 20.1385ZM76.3809 18.7997C76.7563 18.7997 77.0703 18.6966 77.3226 18.4904C77.575 18.2811 77.7627 18.0011 77.8858 17.6502C78.012 17.2994 78.0751 16.9085 78.0751 16.4776C78.0751 16.0437 78.012 15.6513 77.8858 15.3004C77.7627 14.9465 77.575 14.6649 77.3226 14.4556C77.0703 14.2463 76.7563 14.1417 76.3809 14.1417C75.9962 14.1417 75.6761 14.2463 75.4206 14.4556C75.1683 14.6649 74.979 14.9465 74.8528 15.3004C74.7297 15.6513 74.6681 16.0437 74.6681 16.4776C74.6681 16.9085 74.7297 17.2994 74.8528 17.6502C74.979 18.0011 75.1683 18.2811 75.4206 18.4904C75.6761 18.6966 75.9962 18.7997 76.3809 18.7997ZM82.4481 20L80.4445 12.9091H82.148L83.3944 17.8949H83.4591L84.7332 12.9091H86.4182L87.6924 17.8672H87.7616L88.9896 12.9091H90.6977L88.6895 20H86.9491L85.6196 15.2081H85.5226L84.1931 20H82.4481ZM93.5357 15.8452V20H91.8645V12.9091H93.4618V14.114H93.5449C93.708 13.717 93.9681 13.4015 94.3251 13.1676C94.6852 12.9337 95.1299 12.8168 95.6593 12.8168C96.1486 12.8168 96.5749 12.9214 96.938 13.1307C97.3043 13.34 97.5874 13.6431 97.7875 14.0401C97.9906 14.4371 98.0906 14.9188 98.0875 15.4851V20H96.4164V15.7436C96.4164 15.2696 96.2933 14.8988 96.0471 14.631C95.8039 14.3633 95.4669 14.2294 95.036 14.2294C94.7437 14.2294 94.4836 14.294 94.2559 14.4233C94.0312 14.5495 93.8542 14.7326 93.725 14.9727C93.5988 15.2127 93.5357 15.5036 93.5357 15.8452ZM101.458 10.5455V20H99.7864V10.5455H101.458ZM106.269 20.1385C105.577 20.1385 104.976 19.9862 104.469 19.6815C103.961 19.3768 103.567 18.9505 103.287 18.4027C103.01 17.8549 102.871 17.2147 102.871 16.4822C102.871 15.7498 103.01 15.1081 103.287 14.5572C103.567 14.0063 103.961 13.5785 104.469 13.2738C104.976 12.9691 105.577 12.8168 106.269 12.8168C106.962 12.8168 107.562 12.9691 108.07 13.2738C108.577 13.5785 108.97 14.0063 109.247 14.5572C109.527 15.1081 109.667 15.7498 109.667 16.4822C109.667 17.2147 109.527 17.8549 109.247 18.4027C108.97 18.9505 108.577 19.3768 108.07 19.6815C107.562 19.9862 106.962 20.1385 106.269 20.1385ZM106.278 18.7997C106.654 18.7997 106.968 18.6966 107.22 18.4904C107.472 18.2811 107.66 18.0011 107.783 17.6502C107.909 17.2994 107.973 16.9085 107.973 16.4776C107.973 16.0437 107.909 15.6513 107.783 15.3004C107.66 14.9465 107.472 14.6649 107.22 14.4556C106.968 14.2463 106.654 14.1417 106.278 14.1417C105.894 14.1417 105.574 14.2463 105.318 14.4556C105.066 14.6649 104.876 14.9465 104.75 15.3004C104.627 15.6513 104.566 16.0437 104.566 16.4776C104.566 16.9085 104.627 17.2994 104.75 17.6502C104.876 18.0011 105.066 18.2811 105.318 18.4904C105.574 18.6966 105.894 18.7997 106.278 18.7997ZM113.126 20.1431C112.676 20.1431 112.272 20.0631 111.912 19.9031C111.555 19.7399 111.271 19.4999 111.062 19.1829C110.856 18.8659 110.753 18.475 110.753 18.0103C110.753 17.6102 110.827 17.2794 110.974 17.0178C111.122 16.7562 111.324 16.5469 111.579 16.3899C111.835 16.233 112.122 16.1145 112.442 16.0344C112.766 15.9513 113.1 15.8913 113.444 15.8544C113.86 15.8113 114.197 15.7728 114.455 15.739C114.714 15.7021 114.902 15.6467 115.018 15.5728C115.138 15.4959 115.199 15.3774 115.199 15.2173V15.1896C115.199 14.8419 115.095 14.5726 114.889 14.3817C114.683 14.1909 114.386 14.0955 113.998 14.0955C113.589 14.0955 113.264 14.1848 113.024 14.3633C112.787 14.5418 112.627 14.7526 112.544 14.9957L110.984 14.7741C111.107 14.3433 111.31 13.9832 111.593 13.6939C111.876 13.4015 112.222 13.183 112.632 13.0384C113.041 12.8906 113.493 12.8168 113.989 12.8168C114.331 12.8168 114.671 12.8568 115.009 12.9368C115.348 13.0168 115.657 13.1491 115.937 13.3338C116.217 13.5154 116.442 13.7631 116.611 14.0771C116.783 14.391 116.87 14.7834 116.87 15.2543V20H115.263V19.0259H115.208C115.106 19.2229 114.963 19.4076 114.778 19.5799C114.597 19.7492 114.368 19.8861 114.091 19.9908C113.817 20.0923 113.495 20.1431 113.126 20.1431ZM113.56 18.9151C113.895 18.9151 114.186 18.849 114.432 18.7166C114.678 18.5812 114.868 18.4027 115 18.1811C115.135 17.9595 115.203 17.7179 115.203 17.4563V16.6207C115.151 16.6638 115.062 16.7038 114.935 16.7408C114.812 16.7777 114.674 16.81 114.52 16.8377C114.366 16.8654 114.214 16.89 114.063 16.9116C113.912 16.9331 113.781 16.9516 113.67 16.967C113.421 17.0008 113.198 17.0562 113.001 17.1332C112.804 17.2101 112.649 17.3178 112.535 17.4563C112.421 17.5917 112.364 17.7672 112.364 17.9826C112.364 18.2904 112.476 18.5227 112.701 18.6797C112.926 18.8366 113.212 18.9151 113.56 18.9151ZM121.181 20.1246C120.624 20.1246 120.126 19.9815 119.686 19.6953C119.246 19.4091 118.898 18.9936 118.642 18.4489C118.387 17.9041 118.259 17.2424 118.259 16.4638C118.259 15.6759 118.388 15.0111 118.647 14.4695C118.909 13.9247 119.261 13.5138 119.704 13.2369C120.147 12.9568 120.641 12.8168 121.186 12.8168C121.602 12.8168 121.943 12.8875 122.211 13.0291C122.479 13.1676 122.691 13.3353 122.848 13.5323C123.005 13.7262 123.127 13.9093 123.213 14.0817H123.282V10.5455H124.958V20H123.314V18.8828H123.213C123.127 19.0552 123.002 19.2383 122.839 19.4322C122.676 19.623 122.46 19.7861 122.192 19.9215C121.925 20.0569 121.588 20.1246 121.181 20.1246ZM121.648 18.7536C122.002 18.7536 122.303 18.6581 122.553 18.4673C122.802 18.2734 122.991 18.0041 123.12 17.6594C123.25 17.3147 123.314 16.9131 123.314 16.4545C123.314 15.996 123.25 15.5974 123.12 15.2589C122.994 14.9203 122.806 14.6572 122.557 14.4695C122.311 14.2817 122.008 14.1879 121.648 14.1879C121.275 14.1879 120.964 14.2848 120.715 14.4787C120.466 14.6726 120.278 14.9403 120.152 15.282C120.026 15.6236 119.963 16.0144 119.963 16.4545C119.963 16.8977 120.026 17.2932 120.152 17.641C120.281 17.9857 120.471 18.258 120.72 18.4581C120.972 18.6551 121.281 18.7536 121.648 18.7536ZM133.056 20.1385C132.364 20.1385 131.764 19.9862 131.256 19.6815C130.748 19.3768 130.354 18.9505 130.074 18.4027C129.797 17.8549 129.658 17.2147 129.658 16.4822C129.658 15.7498 129.797 15.1081 130.074 14.5572C130.354 14.0063 130.748 13.5785 131.256 13.2738C131.764 12.9691 132.364 12.8168 133.056 12.8168C133.749 12.8168 134.349 12.9691 134.857 13.2738C135.364 13.5785 135.757 14.0063 136.034 14.5572C136.314 15.1081 136.454 15.7498 136.454 16.4822C136.454 17.2147 136.314 17.8549 136.034 18.4027C135.757 18.9505 135.364 19.3768 134.857 19.6815C134.349 19.9862 133.749 20.1385 133.056 20.1385ZM133.065 18.7997C133.441 18.7997 133.755 18.6966 134.007 18.4904C134.26 18.2811 134.447 18.0011 134.57 17.6502C134.697 17.2994 134.76 16.9085 134.76 16.4776C134.76 16.0437 134.697 15.6513 134.57 15.3004C134.447 14.9465 134.26 14.6649 134.007 14.4556C133.755 14.2463 133.441 14.1417 133.065 14.1417C132.681 14.1417 132.361 14.2463 132.105 14.4556C131.853 14.6649 131.664 14.9465 131.537 15.3004C131.414 15.6513 131.353 16.0437 131.353 16.4776C131.353 16.9085 131.414 17.2994 131.537 17.6502C131.664 18.0011 131.853 18.2811 132.105 18.4904C132.361 18.6966 132.681 18.7997 133.065 18.7997ZM139.544 15.8452V20H137.872V12.9091H139.47V14.114H139.553C139.716 13.717 139.976 13.4015 140.333 13.1676C140.693 12.9337 141.138 12.8168 141.667 12.8168C142.156 12.8168 142.583 12.9214 142.946 13.1307C143.312 13.34 143.595 13.6431 143.795 14.0401C143.998 14.4371 144.098 14.9188 144.095 15.4851V20H142.424V15.7436C142.424 15.2696 142.301 14.8988 142.055 14.631C141.812 14.3633 141.475 14.2294 141.044 14.2294C140.751 14.2294 140.491 14.294 140.264 14.4233C140.039 14.5495 139.862 14.7326 139.733 14.9727C139.607 15.2127 139.544 15.5036 139.544 15.8452ZM152.56 12.9091V14.2017H148.483V12.9091H152.56ZM149.49 11.2102H151.161V17.8672C151.161 18.0919 151.195 18.2642 151.262 18.3842C151.333 18.5012 151.426 18.5812 151.539 18.6243C151.653 18.6674 151.779 18.6889 151.918 18.6889C152.023 18.6889 152.118 18.6812 152.204 18.6658C152.293 18.6504 152.361 18.6366 152.407 18.6243L152.689 19.9308C152.6 19.9615 152.472 19.9954 152.306 20.0323C152.143 20.0692 151.943 20.0908 151.706 20.0969C151.287 20.1093 150.91 20.0462 150.575 19.9077C150.239 19.7661 149.973 19.5476 149.776 19.2521C149.582 18.9567 149.487 18.5874 149.49 18.1442V11.2102ZM155.781 15.8452V20H154.11V10.5455H155.744V14.114H155.827C155.993 13.7139 156.25 13.3984 156.598 13.1676C156.949 12.9337 157.395 12.8168 157.937 12.8168C158.429 12.8168 158.858 12.9199 159.225 13.1261C159.591 13.3323 159.874 13.6339 160.074 14.0309C160.277 14.4279 160.379 14.9126 160.379 15.4851V20H158.708V15.7436C158.708 15.2666 158.585 14.8957 158.338 14.631C158.095 14.3633 157.754 14.2294 157.313 14.2294C157.018 14.2294 156.753 14.294 156.519 14.4233C156.289 14.5495 156.107 14.7326 155.975 14.9727C155.845 15.2127 155.781 15.5036 155.781 15.8452ZM165.222 20.1385C164.511 20.1385 163.897 19.9908 163.38 19.6953C162.866 19.3968 162.47 18.9751 162.193 18.4304C161.916 17.8826 161.778 17.2378 161.778 16.4961C161.778 15.7667 161.916 15.1265 162.193 14.5756C162.473 14.0217 162.864 13.5908 163.366 13.283C163.867 12.9722 164.457 12.8168 165.134 12.8168C165.571 12.8168 165.983 12.8875 166.371 13.0291C166.762 13.1676 167.107 13.383 167.405 13.6754C167.707 13.9678 167.944 14.3402 168.116 14.7926C168.288 15.242 168.375 15.7775 168.375 16.3991V16.9116H162.562V15.7852H166.773C166.77 15.4651 166.7 15.1804 166.565 14.9311C166.429 14.6787 166.24 14.4802 165.997 14.3356C165.757 14.1909 165.477 14.1186 165.157 14.1186C164.815 14.1186 164.515 14.2017 164.257 14.3679C163.998 14.531 163.797 14.7464 163.652 15.0142C163.51 15.2789 163.438 15.5697 163.435 15.8867V16.87C163.435 17.2824 163.51 17.6364 163.661 17.9318C163.812 18.2242 164.023 18.4489 164.294 18.6058C164.564 18.7597 164.881 18.8366 165.245 18.8366C165.488 18.8366 165.708 18.8028 165.905 18.7351C166.102 18.6643 166.273 18.5612 166.417 18.4258C166.562 18.2904 166.671 18.1226 166.745 17.9226L168.305 18.098C168.207 18.5104 168.019 18.8705 167.742 19.1783C167.468 19.483 167.117 19.7199 166.69 19.8892C166.262 20.0554 165.772 20.1385 165.222 20.1385Z" fill="white"/>
<path d="M65.9723 41H63.4411L68.0497 27.9091H70.9773L75.5923 41H73.0611L69.5646 30.5938H69.4624L65.9723 41ZM66.0554 35.8672H72.9588V37.772H66.0554V35.8672ZM77.2143 44.6818V31.1818H79.4899V32.8054H79.6241C79.7434 32.5668 79.9118 32.3132 80.1291 32.0447C80.3464 31.772 80.6404 31.5398 81.0112 31.348C81.3819 31.152 81.8549 31.054 82.4302 31.054C83.1887 31.054 83.8727 31.2479 84.4821 31.6357C85.0957 32.0192 85.5815 32.5881 85.9395 33.3423C86.3017 34.0923 86.4828 35.0128 86.4828 36.1037C86.4828 37.1818 86.3059 38.098 85.9522 38.8523C85.5985 39.6065 85.117 40.1818 84.5076 40.5781C83.8983 40.9744 83.2079 41.1726 82.4366 41.1726C81.8741 41.1726 81.4075 41.0788 81.0368 40.8913C80.666 40.7038 80.3677 40.478 80.1419 40.2138C79.9203 39.9453 79.7477 39.6918 79.6241 39.4531H79.5282V44.6818H77.2143ZM79.4835 36.0909C79.4835 36.7259 79.573 37.282 79.752 37.7592C79.9352 38.2365 80.1973 38.6094 80.5382 38.8778C80.8833 39.142 81.301 39.2741 81.791 39.2741C82.3024 39.2741 82.7306 39.1378 83.0758 38.8651C83.421 38.5881 83.6809 38.2109 83.8556 37.7337C84.0346 37.2521 84.1241 36.7045 84.1241 36.0909C84.1241 35.4815 84.0368 34.9403 83.862 34.4673C83.6873 33.9943 83.4274 33.6236 83.0822 33.3551C82.737 33.0866 82.3066 32.9524 81.791 32.9524C81.2967 32.9524 80.877 33.0824 80.5318 33.3423C80.1866 33.6023 79.9245 33.9666 79.7456 34.4354C79.5708 34.9041 79.4835 35.456 79.4835 36.0909ZM88.4643 44.6818V31.1818H90.7399V32.8054H90.8741C90.9934 32.5668 91.1618 32.3132 91.3791 32.0447C91.5964 31.772 91.8904 31.5398 92.2612 31.348C92.6319 31.152 93.1049 31.054 93.6802 31.054C94.4387 31.054 95.1227 31.2479 95.7321 31.6357C96.3457 32.0192 96.8315 32.5881 97.1895 33.3423C97.5517 34.0923 97.7328 35.0128 97.7328 36.1037C97.7328 37.1818 97.5559 38.098 97.2022 38.8523C96.8485 39.6065 96.367 40.1818 95.7576 40.5781C95.1483 40.9744 94.4579 41.1726 93.6866 41.1726C93.1241 41.1726 92.6575 41.0788 92.2868 40.8913C91.916 40.7038 91.6177 40.478 91.3919 40.2138C91.1703 39.9453 90.9977 39.6918 90.8741 39.4531H90.7782V44.6818H88.4643ZM90.7335 36.0909C90.7335 36.7259 90.823 37.282 91.002 37.7592C91.1852 38.2365 91.4473 38.6094 91.7882 38.8778C92.1333 39.142 92.551 39.2741 93.041 39.2741C93.5524 39.2741 93.9806 39.1378 94.3258 38.8651C94.671 38.5881 94.9309 38.2109 95.1056 37.7337C95.2846 37.2521 95.3741 36.7045 95.3741 36.0909C95.3741 35.4815 95.2868 34.9403 95.112 34.4673C94.9373 33.9943 94.6774 33.6236 94.3322 33.3551C93.987 33.0866 93.5566 32.9524 93.041 32.9524C92.5467 32.9524 92.127 33.0824 91.7818 33.3423C91.4366 33.6023 91.1745 33.9666 90.9956 34.4354C90.8208 34.9041 90.7335 35.456 90.7335 36.0909ZM111.396 31.5078C111.336 30.9496 111.085 30.5149 110.642 30.2038C110.203 29.8928 109.632 29.7372 108.928 29.7372C108.434 29.7372 108.01 29.8118 107.656 29.9609C107.303 30.1101 107.032 30.3125 106.845 30.5682C106.657 30.8239 106.561 31.1158 106.557 31.4439C106.557 31.7166 106.619 31.9531 106.742 32.1534C106.87 32.3537 107.043 32.5241 107.26 32.6648C107.477 32.8011 107.718 32.9162 107.982 33.0099C108.247 33.1037 108.513 33.1825 108.781 33.2464L110.009 33.5533C110.503 33.6683 110.978 33.8239 111.434 34.0199C111.894 34.2159 112.306 34.4631 112.668 34.7614C113.034 35.0597 113.324 35.4197 113.537 35.8416C113.75 36.2635 113.857 36.7578 113.857 37.3246C113.857 38.0916 113.661 38.767 113.269 39.3509C112.877 39.9304 112.31 40.3842 111.568 40.7124C110.831 41.0362 109.938 41.1982 108.89 41.1982C107.872 41.1982 106.987 41.0405 106.237 40.7251C105.492 40.4098 104.908 39.9496 104.486 39.3445C104.068 38.7393 103.843 38.0021 103.808 37.1328H106.142C106.176 37.5888 106.316 37.968 106.563 38.2706C106.811 38.5732 107.132 38.799 107.529 38.9482C107.929 39.0973 108.377 39.1719 108.871 39.1719C109.387 39.1719 109.838 39.0952 110.226 38.9418C110.618 38.7841 110.925 38.5668 111.146 38.2898C111.368 38.0085 111.481 37.6804 111.485 37.3054C111.481 36.9645 111.381 36.6832 111.185 36.4616C110.989 36.2358 110.714 36.0483 110.36 35.8991C110.011 35.7457 109.602 35.6094 109.133 35.4901L107.644 35.1065C106.566 34.8295 105.713 34.4098 105.087 33.8473C104.465 33.2805 104.154 32.5284 104.154 31.5909C104.154 30.8196 104.362 30.1442 104.78 29.5646C105.202 28.9851 105.775 28.5355 106.499 28.2159C107.224 27.892 108.044 27.7301 108.96 27.7301C109.889 27.7301 110.703 27.892 111.402 28.2159C112.105 28.5355 112.657 28.9808 113.058 29.5518C113.458 30.1186 113.665 30.7706 113.678 31.5078H111.396ZM120.771 31.1818V32.9716H115.127V31.1818H120.771ZM116.521 28.8295H118.835V38.0469C118.835 38.358 118.881 38.5966 118.975 38.7628C119.073 38.9247 119.201 39.0355 119.359 39.0952C119.516 39.1548 119.691 39.1847 119.883 39.1847C120.028 39.1847 120.16 39.174 120.279 39.1527C120.403 39.1314 120.496 39.1122 120.56 39.0952L120.95 40.9041C120.827 40.9467 120.65 40.9936 120.42 41.0447C120.194 41.0959 119.917 41.1257 119.589 41.1342C119.009 41.1513 118.487 41.0639 118.023 40.8722C117.558 40.6761 117.19 40.3736 116.917 39.9645C116.648 39.5554 116.516 39.044 116.521 38.4304V28.8295ZM126.884 41.1918C125.925 41.1918 125.094 40.9808 124.391 40.5589C123.688 40.1371 123.142 39.5469 122.754 38.7884C122.371 38.0298 122.179 37.1435 122.179 36.1293C122.179 35.1151 122.371 34.2266 122.754 33.4638C123.142 32.701 123.688 32.1087 124.391 31.6868C125.094 31.2649 125.925 31.054 126.884 31.054C127.843 31.054 128.673 31.2649 129.377 31.6868C130.08 32.1087 130.623 32.701 131.007 33.4638C131.394 34.2266 131.588 35.1151 131.588 36.1293C131.588 37.1435 131.394 38.0298 131.007 38.7884C130.623 39.5469 130.08 40.1371 129.377 40.5589C128.673 40.9808 127.843 41.1918 126.884 41.1918ZM126.896 39.3381C127.416 39.3381 127.851 39.1953 128.2 38.9098C128.55 38.62 128.81 38.2322 128.98 37.7464C129.155 37.2607 129.242 36.7195 129.242 36.1229C129.242 35.522 129.155 34.9787 128.98 34.4929C128.81 34.0028 128.55 33.6129 128.2 33.3232C127.851 33.0334 127.416 32.8885 126.896 32.8885C126.364 32.8885 125.921 33.0334 125.567 33.3232C125.218 33.6129 124.955 34.0028 124.781 34.4929C124.61 34.9787 124.525 35.522 124.525 36.1229C124.525 36.7195 124.61 37.2607 124.781 37.7464C124.955 38.2322 125.218 38.62 125.567 38.9098C125.921 39.1953 126.364 39.3381 126.896 39.3381ZM133.552 41V31.1818H135.796V32.8182H135.898C136.077 32.2514 136.384 31.8146 136.819 31.5078C137.257 31.1967 137.758 31.0412 138.321 31.0412C138.449 31.0412 138.591 31.0476 138.749 31.0604C138.911 31.0689 139.045 31.0838 139.152 31.1051V33.2337C139.054 33.1996 138.898 33.1697 138.685 33.1442C138.476 33.1143 138.274 33.0994 138.078 33.0994C137.656 33.0994 137.277 33.1911 136.94 33.3743C136.608 33.5533 136.346 33.8026 136.154 34.1222C135.962 34.4418 135.866 34.8104 135.866 35.228V41H133.552ZM144.631 41.1918C143.647 41.1918 142.797 40.9872 142.081 40.5781C141.369 40.1648 140.822 39.581 140.438 38.8267C140.055 38.0682 139.863 37.1754 139.863 36.1484C139.863 35.1385 140.055 34.2521 140.438 33.4893C140.826 32.7223 141.367 32.1257 142.062 31.6996C142.756 31.2692 143.572 31.054 144.51 31.054C145.115 31.054 145.686 31.152 146.223 31.348C146.764 31.5398 147.241 31.8381 147.655 32.2429C148.072 32.6477 148.4 33.1634 148.639 33.7898C148.878 34.4119 148.997 35.1534 148.997 36.0142V36.7237H140.949V35.1641H146.779C146.775 34.7209 146.679 34.3267 146.491 33.9815C146.304 33.6321 146.042 33.3572 145.705 33.157C145.373 32.9567 144.985 32.8565 144.542 32.8565C144.069 32.8565 143.653 32.9716 143.295 33.2017C142.937 33.4276 142.658 33.7259 142.458 34.0966C142.262 34.4631 142.162 34.8658 142.157 35.3047V36.6662C142.157 37.2372 142.262 37.7273 142.471 38.1364C142.68 38.5412 142.971 38.8523 143.346 39.0696C143.721 39.2827 144.16 39.3892 144.663 39.3892C145 39.3892 145.305 39.3423 145.577 39.2486C145.85 39.1506 146.086 39.0078 146.287 38.8203C146.487 38.6328 146.638 38.4006 146.741 38.1236L148.901 38.3665C148.765 38.9375 148.505 39.4361 148.121 39.8622C147.742 40.2841 147.256 40.6122 146.664 40.8466C146.072 41.0767 145.394 41.1918 144.631 41.1918Z" fill="white"/>
<path d="M47.6621 43.4754C45.5945 45.4807 43.337 45.1641 41.1638 44.2142C38.8641 43.2432 36.7543 43.201 34.328 44.2142C31.2898 45.5229 29.6863 45.143 27.8719 43.4754C17.5759 32.8578 19.095 16.6888 30.7835 16.0977C33.6317 16.2455 35.615 17.6598 37.2817 17.7864C39.7713 17.2798 42.1555 15.8233 44.8138 16.0133C47.9997 16.2666 50.4049 17.5331 51.9873 19.8128C45.4046 23.7601 46.9659 32.4357 53 34.8632C51.7974 38.0294 50.2361 41.1746 47.641 43.4965L47.6621 43.4754ZM37.0708 15.9711C36.7543 11.2639 40.5731 7.37995 44.9615 7C45.5734 12.446 40.0245 16.4988 37.0708 15.9711Z" fill="white"/>
<rect x="212" width="190" height="52" rx="7" fill="black"/>
<path d="M283.266 13.5646C283.189 13.3153 283.083 13.0922 282.948 12.8952C282.815 12.6952 282.655 12.5244 282.468 12.3828C282.283 12.2412 282.071 12.1351 281.831 12.0643C281.591 11.9904 281.329 11.9535 281.046 11.9535C280.538 11.9535 280.086 12.0812 279.689 12.3366C279.292 12.5921 278.979 12.9676 278.751 13.4631C278.527 13.9555 278.414 14.5556 278.414 15.2635C278.414 15.9775 278.527 16.5823 278.751 17.0778C278.976 17.5733 279.288 17.9503 279.689 18.2088C280.089 18.4643 280.553 18.592 281.083 18.592C281.563 18.592 281.978 18.4996 282.329 18.315C282.683 18.1303 282.955 17.8687 283.146 17.5302C283.337 17.1886 283.433 16.7885 283.433 16.3299L283.82 16.3899H281.254V15.0511H285.09V16.1868C285.09 16.9962 284.917 17.6964 284.573 18.2873C284.228 18.8782 283.754 19.3337 283.151 19.6538C282.548 19.9708 281.855 20.1293 281.074 20.1293C280.203 20.1293 279.438 19.9338 278.779 19.543C278.124 19.149 277.611 18.5904 277.242 17.8672C276.876 17.1409 276.692 16.2791 276.692 15.282C276.692 14.5187 276.8 13.837 277.016 13.2369C277.234 12.6367 277.539 12.1274 277.93 11.7088C278.321 11.2872 278.779 10.9671 279.305 10.7486C279.832 10.527 280.404 10.4162 281.023 10.4162C281.546 10.4162 282.034 10.4931 282.486 10.647C282.939 10.7978 283.34 11.0133 283.691 11.2933C284.045 11.5734 284.336 11.9058 284.564 12.2905C284.791 12.6752 284.941 13.0999 285.011 13.5646H283.266ZM289.811 20.1385C289.1 20.1385 288.486 19.9908 287.969 19.6953C287.455 19.3968 287.06 18.9751 286.783 18.4304C286.506 17.8826 286.367 17.2378 286.367 16.4961C286.367 15.7667 286.506 15.1265 286.783 14.5756C287.063 14.0217 287.454 13.5908 287.956 13.283C288.457 12.9722 289.047 12.8168 289.724 12.8168C290.161 12.8168 290.573 12.8875 290.961 13.0291C291.352 13.1676 291.696 13.383 291.995 13.6754C292.297 13.9678 292.534 14.3402 292.706 14.7926C292.878 15.242 292.964 15.7775 292.964 16.3991V16.9116H287.152V15.7852H291.362C291.359 15.4651 291.29 15.1804 291.155 14.9311C291.019 14.6787 290.83 14.4802 290.587 14.3356C290.347 14.1909 290.067 14.1186 289.747 14.1186C289.405 14.1186 289.105 14.2017 288.847 14.3679C288.588 14.531 288.386 14.7464 288.242 15.0142C288.1 15.2789 288.028 15.5697 288.025 15.8867V16.87C288.025 17.2824 288.1 17.6364 288.251 17.9318C288.402 18.2242 288.613 18.4489 288.883 18.6058C289.154 18.7597 289.471 18.8366 289.834 18.8366C290.078 18.8366 290.298 18.8028 290.495 18.7351C290.692 18.6643 290.862 18.5612 291.007 18.4258C291.152 18.2904 291.261 18.1226 291.335 17.9226L292.895 18.098C292.797 18.5104 292.609 18.8705 292.332 19.1783C292.058 19.483 291.707 19.7199 291.279 19.8892C290.852 20.0554 290.362 20.1385 289.811 20.1385ZM297.919 12.9091V14.2017H293.843V12.9091H297.919ZM294.849 11.2102H296.52V17.8672C296.52 18.0919 296.554 18.2642 296.622 18.3842C296.693 18.5012 296.785 18.5812 296.899 18.6243C297.013 18.6674 297.139 18.6889 297.277 18.6889C297.382 18.6889 297.477 18.6812 297.564 18.6658C297.653 18.6504 297.721 18.6366 297.767 18.6243L298.048 19.9308C297.959 19.9615 297.831 19.9954 297.665 20.0323C297.502 20.0692 297.302 20.0908 297.065 20.0969C296.646 20.1093 296.269 20.0462 295.934 19.9077C295.598 19.7661 295.332 19.5476 295.135 19.2521C294.941 18.9567 294.846 18.5874 294.849 18.1442V11.2102ZM302.541 20V12.9091H304.212V20H302.541ZM303.381 11.9027C303.117 11.9027 302.889 11.815 302.698 11.6396C302.507 11.4611 302.412 11.2472 302.412 10.9979C302.412 10.7455 302.507 10.5316 302.698 10.3562C302.889 10.1777 303.117 10.0884 303.381 10.0884C303.649 10.0884 303.877 10.1777 304.065 10.3562C304.256 10.5316 304.351 10.7455 304.351 10.9979C304.351 11.2472 304.256 11.4611 304.065 11.6396C303.877 11.815 303.649 11.9027 303.381 11.9027ZM309.472 12.9091V14.2017H305.395V12.9091H309.472ZM306.402 11.2102H308.073V17.8672C308.073 18.0919 308.107 18.2642 308.175 18.3842C308.245 18.5012 308.338 18.5812 308.452 18.6243C308.565 18.6674 308.692 18.6889 308.83 18.6889C308.935 18.6889 309.03 18.6812 309.116 18.6658C309.206 18.6504 309.273 18.6366 309.319 18.6243L309.601 19.9308C309.512 19.9615 309.384 19.9954 309.218 20.0323C309.055 20.0692 308.855 20.0908 308.618 20.0969C308.199 20.1093 307.822 20.0462 307.487 19.9077C307.151 19.7661 306.885 19.5476 306.688 19.2521C306.494 18.9567 306.399 18.5874 306.402 18.1442V11.2102ZM317.187 20.1385C316.495 20.1385 315.894 19.9862 315.387 19.6815C314.879 19.3768 314.485 18.9505 314.205 18.4027C313.928 17.8549 313.789 17.2147 313.789 16.4822C313.789 15.7498 313.928 15.1081 314.205 14.5572C314.485 14.0063 314.879 13.5785 315.387 13.2738C315.894 12.9691 316.495 12.8168 317.187 12.8168C317.88 12.8168 318.48 12.9691 318.987 13.2738C319.495 13.5785 319.888 14.0063 320.165 14.5572C320.445 15.1081 320.585 15.7498 320.585 16.4822C320.585 17.2147 320.445 17.8549 320.165 18.4027C319.888 18.9505 319.495 19.3768 318.987 19.6815C318.48 19.9862 317.88 20.1385 317.187 20.1385ZM317.196 18.7997C317.572 18.7997 317.886 18.6966 318.138 18.4904C318.39 18.2811 318.578 18.0011 318.701 17.6502C318.827 17.2994 318.891 16.9085 318.891 16.4776C318.891 16.0437 318.827 15.6513 318.701 15.3004C318.578 14.9465 318.39 14.6649 318.138 14.4556C317.886 14.2463 317.572 14.1417 317.196 14.1417C316.812 14.1417 316.492 14.2463 316.236 14.4556C315.984 14.6649 315.794 14.9465 315.668 15.3004C315.545 15.6513 315.484 16.0437 315.484 16.4776C315.484 16.9085 315.545 17.2994 315.668 17.6502C315.794 18.0011 315.984 18.2811 316.236 18.4904C316.492 18.6966 316.812 18.7997 317.196 18.7997ZM323.674 15.8452V20H322.003V12.9091H323.6V14.114H323.684C323.847 13.717 324.107 13.4015 324.464 13.1676C324.824 12.9337 325.269 12.8168 325.798 12.8168C326.287 12.8168 326.714 12.9214 327.077 13.1307C327.443 13.34 327.726 13.6431 327.926 14.0401C328.129 14.4371 328.229 14.9188 328.226 15.4851V20H326.555V15.7436C326.555 15.2696 326.432 14.8988 326.186 14.631C325.943 14.3633 325.606 14.2294 325.175 14.2294C324.882 14.2294 324.622 14.294 324.395 14.4233C324.17 14.5495 323.993 14.7326 323.864 14.9727C323.737 15.2127 323.674 15.5036 323.674 15.8452Z" fill="white"/>
<path d="M286.061 32.0895C285.955 31.7443 285.808 31.4354 285.62 31.1626C285.437 30.8857 285.215 30.6491 284.955 30.4531C284.7 30.2571 284.406 30.1101 284.073 30.0121C283.741 29.9098 283.379 29.8587 282.987 29.8587C282.283 29.8587 281.657 30.0355 281.107 30.3892C280.558 30.7429 280.125 31.2628 279.81 31.9489C279.499 32.6307 279.343 33.4616 279.343 34.4418C279.343 35.4304 279.499 36.2678 279.81 36.9538C280.121 37.6399 280.553 38.1619 281.107 38.5199C281.661 38.8736 282.305 39.0504 283.038 39.0504C283.702 39.0504 284.278 38.9226 284.763 38.6669C285.254 38.4112 285.631 38.049 285.895 37.5803C286.159 37.1072 286.291 36.5533 286.291 35.9183L286.828 36.0014H283.274V34.1477H288.586V35.7202C288.586 36.8409 288.347 37.8104 287.87 38.6286C287.393 39.4467 286.737 40.0774 285.901 40.5206C285.066 40.9595 284.107 41.179 283.025 41.179C281.819 41.179 280.76 40.9084 279.848 40.3672C278.94 39.8217 278.231 39.0483 277.719 38.0469C277.212 37.0412 276.959 35.848 276.959 34.4673C276.959 33.4105 277.108 32.4666 277.406 31.6357C277.709 30.8047 278.131 30.0994 278.672 29.5199C279.213 28.9361 279.848 28.4929 280.577 28.1903C281.305 27.8835 282.098 27.7301 282.955 27.7301C283.679 27.7301 284.354 27.8366 284.981 28.0497C285.607 28.2585 286.163 28.5568 286.649 28.9446C287.139 29.3324 287.542 29.7926 287.857 30.3253C288.173 30.858 288.379 31.446 288.477 32.0895H286.061ZM295.059 41.1918C294.101 41.1918 293.27 40.9808 292.567 40.5589C291.863 40.1371 291.318 39.5469 290.93 38.7884C290.547 38.0298 290.355 37.1435 290.355 36.1293C290.355 35.1151 290.547 34.2266 290.93 33.4638C291.318 32.701 291.863 32.1087 292.567 31.6868C293.27 31.2649 294.101 31.054 295.059 31.054C296.018 31.054 296.849 31.2649 297.552 31.6868C298.256 32.1087 298.799 32.701 299.182 33.4638C299.57 34.2266 299.764 35.1151 299.764 36.1293C299.764 37.1435 299.57 38.0298 299.182 38.7884C298.799 39.5469 298.256 40.1371 297.552 40.5589C296.849 40.9808 296.018 41.1918 295.059 41.1918ZM295.072 39.3381C295.592 39.3381 296.027 39.1953 296.376 38.9098C296.726 38.62 296.986 38.2322 297.156 37.7464C297.331 37.2607 297.418 36.7195 297.418 36.1229C297.418 35.522 297.331 34.9787 297.156 34.4929C296.986 34.0028 296.726 33.6129 296.376 33.3232C296.027 33.0334 295.592 32.8885 295.072 32.8885C294.54 32.8885 294.096 33.0334 293.743 33.3232C293.393 33.6129 293.131 34.0028 292.956 34.4929C292.786 34.9787 292.701 35.522 292.701 36.1229C292.701 36.7195 292.786 37.2607 292.956 37.7464C293.131 38.2322 293.393 38.62 293.743 38.9098C294.096 39.1953 294.54 39.3381 295.072 39.3381ZM306.011 41.1918C305.052 41.1918 304.221 40.9808 303.518 40.5589C302.815 40.1371 302.269 39.5469 301.881 38.7884C301.498 38.0298 301.306 37.1435 301.306 36.1293C301.306 35.1151 301.498 34.2266 301.881 33.4638C302.269 32.701 302.815 32.1087 303.518 31.6868C304.221 31.2649 305.052 31.054 306.011 31.054C306.969 31.054 307.8 31.2649 308.504 31.6868C309.207 32.1087 309.75 32.701 310.134 33.4638C310.521 34.2266 310.715 35.1151 310.715 36.1293C310.715 37.1435 310.521 38.0298 310.134 38.7884C309.75 39.5469 309.207 40.1371 308.504 40.5589C307.8 40.9808 306.969 41.1918 306.011 41.1918ZM306.023 39.3381C306.543 39.3381 306.978 39.1953 307.327 38.9098C307.677 38.62 307.937 38.2322 308.107 37.7464C308.282 37.2607 308.369 36.7195 308.369 36.1229C308.369 35.522 308.282 34.9787 308.107 34.4929C307.937 34.0028 307.677 33.6129 307.327 33.3232C306.978 33.0334 306.543 32.8885 306.023 32.8885C305.491 32.8885 305.048 33.0334 304.694 33.3232C304.344 33.6129 304.082 34.0028 303.908 34.4929C303.737 34.9787 303.652 35.522 303.652 36.1229C303.652 36.7195 303.737 37.2607 303.908 37.7464C304.082 38.2322 304.344 38.62 304.694 38.9098C305.048 39.1953 305.491 39.3381 306.023 39.3381ZM316.949 44.8864C316.118 44.8864 315.404 44.7734 314.808 44.5476C314.211 44.326 313.732 44.0277 313.369 43.6527C313.007 43.2777 312.756 42.8622 312.615 42.4062L314.699 41.9013C314.793 42.093 314.929 42.2827 315.108 42.4702C315.287 42.6619 315.528 42.8196 315.83 42.9432C316.137 43.071 316.523 43.1349 316.987 43.1349C317.644 43.1349 318.187 42.9751 318.617 42.6555C319.048 42.3402 319.263 41.8203 319.263 41.0959V39.2358H319.148C319.029 39.4744 318.854 39.7195 318.624 39.9709C318.398 40.2223 318.097 40.4332 317.722 40.6037C317.352 40.7741 316.885 40.8594 316.323 40.8594C315.568 40.8594 314.884 40.6825 314.271 40.3288C313.661 39.9709 313.176 39.4382 312.813 38.7308C312.455 38.0192 312.276 37.1286 312.276 36.0589C312.276 34.9808 312.455 34.071 312.813 33.3295C313.176 32.5838 313.664 32.0192 314.277 31.6357C314.891 31.2479 315.575 31.054 316.329 31.054C316.904 31.054 317.377 31.152 317.748 31.348C318.123 31.5398 318.421 31.772 318.643 32.0447C318.865 32.3132 319.033 32.5668 319.148 32.8054H319.276V31.1818H321.558V41.1598C321.558 41.9993 321.357 42.6939 320.957 43.2436C320.556 43.7933 320.009 44.2045 319.314 44.4773C318.619 44.75 317.831 44.8864 316.949 44.8864ZM316.968 39.044C317.458 39.044 317.876 38.9247 318.221 38.6861C318.566 38.4474 318.828 38.1044 319.007 37.657C319.186 37.2095 319.276 36.6726 319.276 36.0462C319.276 35.4283 319.186 34.8871 319.007 34.4226C318.833 33.9581 318.573 33.598 318.227 33.3423C317.887 33.0824 317.467 32.9524 316.968 32.9524C316.453 32.9524 316.022 33.0866 315.677 33.3551C315.332 33.6236 315.072 33.9922 314.897 34.4609C314.722 34.9254 314.635 35.4538 314.635 36.0462C314.635 36.647 314.722 37.1733 314.897 37.625C315.076 38.0724 315.338 38.4219 315.683 38.6733C316.033 38.9205 316.461 39.044 316.968 39.044ZM326.243 27.9091V41H323.929V27.9091H326.243ZM332.969 41.1918C331.985 41.1918 331.135 40.9872 330.419 40.5781C329.707 40.1648 329.159 39.581 328.776 38.8267C328.392 38.0682 328.201 37.1754 328.201 36.1484C328.201 35.1385 328.392 34.2521 328.776 33.4893C329.164 32.7223 329.705 32.1257 330.4 31.6996C331.094 31.2692 331.91 31.054 332.848 31.054C333.453 31.054 334.024 31.152 334.561 31.348C335.102 31.5398 335.579 31.8381 335.993 32.2429C336.41 32.6477 336.738 33.1634 336.977 33.7898C337.216 34.4119 337.335 35.1534 337.335 36.0142V36.7237H329.287V35.1641H335.117C335.113 34.7209 335.017 34.3267 334.829 33.9815C334.642 33.6321 334.38 33.3572 334.043 33.157C333.711 32.9567 333.323 32.8565 332.88 32.8565C332.407 32.8565 331.991 32.9716 331.633 33.2017C331.275 33.4276 330.996 33.7259 330.796 34.0966C330.6 34.4631 330.5 34.8658 330.495 35.3047V36.6662C330.495 37.2372 330.6 37.7273 330.809 38.1364C331.017 38.5412 331.309 38.8523 331.684 39.0696C332.059 39.2827 332.498 39.3892 333.001 39.3892C333.338 39.3892 333.642 39.3423 333.915 39.2486C334.188 39.1506 334.424 39.0078 334.625 38.8203C334.825 38.6328 334.976 38.4006 335.078 38.1236L337.239 38.3665C337.103 38.9375 336.843 39.4361 336.459 39.8622C336.08 40.2841 335.594 40.6122 335.002 40.8466C334.409 41.0767 333.732 41.1918 332.969 41.1918ZM343.86 41V27.9091H348.769C349.774 27.9091 350.618 28.0966 351.3 28.4716C351.986 28.8466 352.504 29.3622 352.853 30.0185C353.207 30.6705 353.384 31.4119 353.384 32.2429C353.384 33.0824 353.207 33.8281 352.853 34.4801C352.499 35.1321 351.977 35.6456 351.287 36.0206C350.597 36.3913 349.747 36.5767 348.737 36.5767H345.483V34.6271H348.417C349.005 34.6271 349.487 34.5249 349.862 34.3203C350.237 34.1158 350.514 33.8345 350.693 33.4766C350.876 33.1186 350.968 32.7074 350.968 32.2429C350.968 31.7784 350.876 31.3693 350.693 31.0156C350.514 30.6619 350.235 30.3871 349.855 30.1911C349.48 29.9908 348.997 29.8906 348.404 29.8906H346.231V41H343.86ZM357.655 27.9091V41H355.341V27.9091H357.655ZM362.86 41.1982C362.238 41.1982 361.677 41.0874 361.179 40.8658C360.684 40.6399 360.292 40.3075 360.003 39.8686C359.717 39.4297 359.574 38.8885 359.574 38.245C359.574 37.6911 359.677 37.233 359.881 36.8707C360.086 36.5085 360.365 36.2188 360.719 36.0014C361.072 35.7841 361.471 35.62 361.914 35.5092C362.361 35.3942 362.824 35.3111 363.301 35.2599C363.876 35.2003 364.343 35.147 364.701 35.1001C365.059 35.049 365.319 34.9723 365.481 34.87C365.647 34.7635 365.73 34.5994 365.73 34.3778V34.3395C365.73 33.858 365.587 33.4851 365.302 33.2209C365.016 32.9567 364.605 32.8246 364.068 32.8246C363.501 32.8246 363.052 32.9482 362.719 33.1953C362.391 33.4425 362.17 33.7344 362.055 34.071L359.894 33.7642C360.064 33.1676 360.346 32.669 360.738 32.2685C361.13 31.8636 361.609 31.5611 362.176 31.3608C362.743 31.1562 363.369 31.054 364.055 31.054C364.528 31.054 364.999 31.1094 365.468 31.2202C365.937 31.331 366.365 31.5142 366.753 31.7699C367.14 32.0213 367.452 32.3643 367.686 32.799C367.925 33.2337 368.044 33.777 368.044 34.429V41H365.819V39.6513H365.743C365.602 39.924 365.404 40.1797 365.148 40.4183C364.897 40.6527 364.579 40.8423 364.196 40.9872C363.817 41.1278 363.371 41.1982 362.86 41.1982ZM363.461 39.4979C363.925 39.4979 364.328 39.4062 364.669 39.223C365.01 39.0355 365.272 38.7884 365.455 38.4815C365.643 38.1747 365.736 37.8402 365.736 37.478V36.321C365.664 36.3807 365.54 36.4361 365.366 36.4872C365.195 36.5384 365.003 36.5831 364.79 36.6214C364.577 36.6598 364.366 36.6939 364.157 36.7237C363.949 36.7536 363.768 36.7791 363.614 36.8004C363.269 36.8473 362.96 36.924 362.687 37.0305C362.415 37.1371 362.199 37.2862 362.042 37.478C361.884 37.6655 361.805 37.9084 361.805 38.2067C361.805 38.6328 361.961 38.9545 362.272 39.1719C362.583 39.3892 362.979 39.4979 363.461 39.4979ZM371.457 44.6818C371.142 44.6818 370.85 44.6563 370.581 44.6051C370.317 44.5582 370.106 44.5028 369.949 44.4389L370.486 42.6364C370.822 42.7344 371.123 42.7813 371.387 42.777C371.651 42.7727 371.883 42.6896 372.084 42.5277C372.288 42.37 372.461 42.1058 372.601 41.7351L372.8 41.2045L369.239 31.1818H371.694L373.956 38.5966H374.059L376.328 31.1818H378.789L374.858 42.1889C374.675 42.7088 374.432 43.1541 374.129 43.5249C373.827 43.8999 373.456 44.1854 373.017 44.3814C372.582 44.5817 372.062 44.6818 371.457 44.6818Z" fill="white"/>
<path d="M235.519 10.6711L251.175 26.0088L235.635 41.488C235.381 41.1572 235.184 40.7865 235.051 40.391C234.983 39.9433 234.983 39.4877 235.051 39.0399V12.6986C235.005 11.9917 235.168 11.2849 235.517 10.6711M257.919 19.3197L252.809 24.3768L237.339 9.17865C237.84 9.00507 238.378 8.95676 238.903 9.03907C239.727 9.26455 240.513 9.61171 241.235 10.0645L255.236 17.804C256.146 18.2925 257.033 18.8061 257.919 19.3197ZM252.811 27.6641L257.896 32.6532L254.21 34.704L242.962 40.9493C242.03 41.4629 241.095 41.9532 240.185 42.5134C239.796 42.7555 239.359 42.9119 238.905 42.9721C238.45 43.0323 237.988 42.9948 237.548 42.8623L252.811 27.6641ZM265.995 26.0088C266.008 26.6346 265.85 27.252 265.537 27.7945C265.225 28.3369 264.77 28.7838 264.221 29.0868L260.019 31.4167L254.489 26.0088L260.042 20.5079C261.466 21.3007 262.867 22.0934 264.266 22.8397C264.824 23.1512 265.282 23.6141 265.588 24.175C265.894 24.7358 266.036 25.3716 265.995 26.0088Z" fill="white"/>
</svg>
